<mxfile host="app.diagrams.net" agent="Mozilla/5.0 (Windows NT 10.0; Win64; x64) AppleWebKit/537.36 (KHTML, like Gecko) Chrome/126.0.0.0 Safari/537.36 NetType/WIFI MicroMessenger/7.0.20.1781(0x6700143B) WindowsWechat(0x63090c33) XWEB/14185 Flue" version="28.0.7">
  <diagram name="第 1 页" id="impDIyDgW5SzUzx9xK9c">
    <mxGraphModel dx="1042" dy="607" grid="1" gridSize="10" guides="1" tooltips="1" connect="1" arrows="1" fold="1" page="1" pageScale="1" pageWidth="2339" pageHeight="3300" math="0" shadow="0">
      <root>
        <mxCell id="0" />
        <mxCell id="1" parent="0" />
        <mxCell id="OvTDYiHXzu4ZW3dvxAtP-1" value="Conv" style="rounded=1;whiteSpace=wrap;html=1;fillColor=#0050ef;strokeColor=#001DBC;fontColor=#ffffff;direction=south;" vertex="1" parent="1">
          <mxGeometry x="200" y="660" width="40" height="80" as="geometry" />
        </mxCell>
        <mxCell id="OvTDYiHXzu4ZW3dvxAtP-2" value="Group1" style="rounded=1;whiteSpace=wrap;html=1;fillColor=#6a00ff;fontColor=#ffffff;strokeColor=#3700CC;direction=south;" vertex="1" parent="1">
          <mxGeometry x="280" y="660" width="40" height="80" as="geometry" />
        </mxCell>
        <mxCell id="OvTDYiHXzu4ZW3dvxAtP-3" value="Gated fusion" style="rounded=1;whiteSpace=wrap;html=1;fillColor=#a0522d;fontColor=#ffffff;strokeColor=#6D1F00;direction=south;" vertex="1" parent="1">
          <mxGeometry x="520" y="660" width="40" height="80" as="geometry" />
        </mxCell>
        <mxCell id="OvTDYiHXzu4ZW3dvxAtP-4" value="CA" style="rounded=1;whiteSpace=wrap;html=1;fillColor=#76608a;fontColor=#ffffff;strokeColor=#432D57;direction=south;" vertex="1" parent="1">
          <mxGeometry x="600" y="660" width="40" height="80" as="geometry" />
        </mxCell>
        <mxCell id="OvTDYiHXzu4ZW3dvxAtP-5" value="PA" style="rounded=1;whiteSpace=wrap;html=1;fillColor=#647687;fontColor=#ffffff;strokeColor=#314354;direction=south;" vertex="1" parent="1">
          <mxGeometry x="680" y="660" width="40" height="80" as="geometry" />
        </mxCell>
        <mxCell id="OvTDYiHXzu4ZW3dvxAtP-6" value="" style="endArrow=classic;html=1;rounded=0;" edge="1" parent="1" target="OvTDYiHXzu4ZW3dvxAtP-1">
          <mxGeometry width="50" height="50" relative="1" as="geometry">
            <mxPoint x="160" y="700" as="sourcePoint" />
            <mxPoint x="560" y="790" as="targetPoint" />
          </mxGeometry>
        </mxCell>
        <mxCell id="OvTDYiHXzu4ZW3dvxAtP-7" value="Group2" style="rounded=1;whiteSpace=wrap;html=1;fillColor=#6a00ff;fontColor=#ffffff;strokeColor=#3700CC;direction=south;" vertex="1" parent="1">
          <mxGeometry x="360" y="660" width="40" height="80" as="geometry" />
        </mxCell>
        <mxCell id="OvTDYiHXzu4ZW3dvxAtP-8" value="Group3" style="rounded=1;whiteSpace=wrap;html=1;fillColor=#6a00ff;fontColor=#ffffff;strokeColor=#3700CC;direction=south;" vertex="1" parent="1">
          <mxGeometry x="440" y="660" width="40" height="80" as="geometry" />
        </mxCell>
        <mxCell id="OvTDYiHXzu4ZW3dvxAtP-9" value="" style="endArrow=classic;html=1;rounded=0;" edge="1" parent="1" source="OvTDYiHXzu4ZW3dvxAtP-1">
          <mxGeometry width="50" height="50" relative="1" as="geometry">
            <mxPoint x="300" y="700" as="sourcePoint" />
            <mxPoint x="280" y="700" as="targetPoint" />
            <Array as="points" />
          </mxGeometry>
        </mxCell>
        <mxCell id="OvTDYiHXzu4ZW3dvxAtP-10" value="" style="endArrow=classic;html=1;rounded=0;exitX=0.5;exitY=0;exitDx=0;exitDy=0;" edge="1" parent="1" source="OvTDYiHXzu4ZW3dvxAtP-2">
          <mxGeometry width="50" height="50" relative="1" as="geometry">
            <mxPoint x="450" y="600" as="sourcePoint" />
            <mxPoint x="360" y="700" as="targetPoint" />
          </mxGeometry>
        </mxCell>
        <mxCell id="OvTDYiHXzu4ZW3dvxAtP-11" value="" style="endArrow=classic;html=1;rounded=0;" edge="1" parent="1" source="OvTDYiHXzu4ZW3dvxAtP-7">
          <mxGeometry width="50" height="50" relative="1" as="geometry">
            <mxPoint x="700" y="570" as="sourcePoint" />
            <mxPoint x="440" y="700" as="targetPoint" />
          </mxGeometry>
        </mxCell>
        <mxCell id="OvTDYiHXzu4ZW3dvxAtP-12" value="" style="endArrow=classic;html=1;rounded=0;" edge="1" parent="1" source="OvTDYiHXzu4ZW3dvxAtP-8">
          <mxGeometry width="50" height="50" relative="1" as="geometry">
            <mxPoint x="650" y="600" as="sourcePoint" />
            <mxPoint x="520" y="700" as="targetPoint" />
          </mxGeometry>
        </mxCell>
        <mxCell id="OvTDYiHXzu4ZW3dvxAtP-13" value="" style="endArrow=classic;html=1;rounded=0;exitX=0.5;exitY=0;exitDx=0;exitDy=0;" edge="1" parent="1" source="OvTDYiHXzu4ZW3dvxAtP-3">
          <mxGeometry width="50" height="50" relative="1" as="geometry">
            <mxPoint x="800" y="570" as="sourcePoint" />
            <mxPoint x="600" y="700" as="targetPoint" />
          </mxGeometry>
        </mxCell>
        <mxCell id="OvTDYiHXzu4ZW3dvxAtP-14" value="" style="endArrow=classic;html=1;rounded=0;exitX=0.5;exitY=0;exitDx=0;exitDy=0;" edge="1" parent="1" source="OvTDYiHXzu4ZW3dvxAtP-4">
          <mxGeometry width="50" height="50" relative="1" as="geometry">
            <mxPoint x="960" y="570" as="sourcePoint" />
            <mxPoint x="680" y="700" as="targetPoint" />
          </mxGeometry>
        </mxCell>
        <mxCell id="OvTDYiHXzu4ZW3dvxAtP-15" value="Conv" style="rounded=1;whiteSpace=wrap;html=1;fillColor=#0050ef;strokeColor=#001DBC;fontColor=#ffffff;direction=south;" vertex="1" parent="1">
          <mxGeometry x="760" y="660" width="40" height="80" as="geometry" />
        </mxCell>
        <mxCell id="OvTDYiHXzu4ZW3dvxAtP-16" value="Conv" style="rounded=1;whiteSpace=wrap;html=1;fillColor=#0050ef;strokeColor=#001DBC;fontColor=#ffffff;direction=south;" vertex="1" parent="1">
          <mxGeometry x="800" y="660" width="40" height="80" as="geometry" />
        </mxCell>
        <mxCell id="OvTDYiHXzu4ZW3dvxAtP-18" value="" style="endArrow=classic;html=1;rounded=0;" edge="1" parent="1" source="OvTDYiHXzu4ZW3dvxAtP-5">
          <mxGeometry width="50" height="50" relative="1" as="geometry">
            <mxPoint x="1010" y="770" as="sourcePoint" />
            <mxPoint x="760" y="700" as="targetPoint" />
          </mxGeometry>
        </mxCell>
        <mxCell id="OvTDYiHXzu4ZW3dvxAtP-19" value="" style="endArrow=classic;html=1;rounded=0;exitX=0.5;exitY=0;exitDx=0;exitDy=0;" edge="1" parent="1" source="OvTDYiHXzu4ZW3dvxAtP-16">
          <mxGeometry width="50" height="50" relative="1" as="geometry">
            <mxPoint x="620" y="840" as="sourcePoint" />
            <mxPoint x="880" y="700" as="targetPoint" />
          </mxGeometry>
        </mxCell>
        <mxCell id="OvTDYiHXzu4ZW3dvxAtP-20" value="" style="endArrow=classic;html=1;rounded=0;entryX=0.5;entryY=0;entryDx=0;entryDy=0;" edge="1" parent="1" target="OvTDYiHXzu4ZW3dvxAtP-24">
          <mxGeometry width="50" height="50" relative="1" as="geometry">
            <mxPoint x="180" y="700" as="sourcePoint" />
            <mxPoint x="1220" y="680" as="targetPoint" />
            <Array as="points">
              <mxPoint x="180" y="600" />
              <mxPoint x="900" y="600" />
            </Array>
          </mxGeometry>
        </mxCell>
        <mxCell id="OvTDYiHXzu4ZW3dvxAtP-22" value="" style="endArrow=none;html=1;rounded=0;" edge="1" parent="1">
          <mxGeometry width="50" height="50" relative="1" as="geometry">
            <mxPoint x="672.1880078490092" y="786.7179882264857" as="sourcePoint" />
            <mxPoint x="670" y="790" as="targetPoint" />
          </mxGeometry>
        </mxCell>
        <mxCell id="OvTDYiHXzu4ZW3dvxAtP-24" value="" style="ellipse;whiteSpace=wrap;html=1;aspect=fixed;" vertex="1" parent="1">
          <mxGeometry x="880" y="680" width="40" height="40" as="geometry" />
        </mxCell>
        <mxCell id="OvTDYiHXzu4ZW3dvxAtP-26" value="" style="endArrow=none;html=1;rounded=0;entryX=0.5;entryY=0;entryDx=0;entryDy=0;exitX=0.5;exitY=1;exitDx=0;exitDy=0;" edge="1" parent="1" source="OvTDYiHXzu4ZW3dvxAtP-24" target="OvTDYiHXzu4ZW3dvxAtP-24">
          <mxGeometry width="50" height="50" relative="1" as="geometry">
            <mxPoint x="620" y="840" as="sourcePoint" />
            <mxPoint x="670" y="790" as="targetPoint" />
          </mxGeometry>
        </mxCell>
        <mxCell id="OvTDYiHXzu4ZW3dvxAtP-27" value="" style="endArrow=none;html=1;rounded=0;exitX=1;exitY=0.5;exitDx=0;exitDy=0;entryX=0;entryY=0.5;entryDx=0;entryDy=0;" edge="1" parent="1" source="OvTDYiHXzu4ZW3dvxAtP-24" target="OvTDYiHXzu4ZW3dvxAtP-24">
          <mxGeometry width="50" height="50" relative="1" as="geometry">
            <mxPoint x="620" y="840" as="sourcePoint" />
            <mxPoint x="670" y="790" as="targetPoint" />
            <Array as="points" />
          </mxGeometry>
        </mxCell>
        <mxCell id="OvTDYiHXzu4ZW3dvxAtP-29" value="" style="endArrow=classic;html=1;rounded=0;" edge="1" parent="1">
          <mxGeometry width="50" height="50" relative="1" as="geometry">
            <mxPoint x="920" y="700" as="sourcePoint" />
            <mxPoint x="960" y="700" as="targetPoint" />
          </mxGeometry>
        </mxCell>
        <mxCell id="OvTDYiHXzu4ZW3dvxAtP-30" value="" style="endArrow=classic;html=1;rounded=0;exitX=0;exitY=0.5;exitDx=0;exitDy=0;entryX=0;entryY=0.5;entryDx=0;entryDy=0;" edge="1" parent="1" source="OvTDYiHXzu4ZW3dvxAtP-2" target="OvTDYiHXzu4ZW3dvxAtP-3">
          <mxGeometry width="50" height="50" relative="1" as="geometry">
            <mxPoint x="610" y="750" as="sourcePoint" />
            <mxPoint x="660" y="700" as="targetPoint" />
            <Array as="points">
              <mxPoint x="300" y="610" />
              <mxPoint x="540" y="610" />
            </Array>
          </mxGeometry>
        </mxCell>
        <mxCell id="OvTDYiHXzu4ZW3dvxAtP-31" value="" style="endArrow=none;html=1;rounded=0;exitX=0;exitY=0.5;exitDx=0;exitDy=0;" edge="1" parent="1" source="OvTDYiHXzu4ZW3dvxAtP-7">
          <mxGeometry width="50" height="50" relative="1" as="geometry">
            <mxPoint x="610" y="750" as="sourcePoint" />
            <mxPoint x="380" y="610" as="targetPoint" />
          </mxGeometry>
        </mxCell>
        <mxCell id="OvTDYiHXzu4ZW3dvxAtP-32" value="" style="endArrow=none;html=1;rounded=0;exitX=0;exitY=0.5;exitDx=0;exitDy=0;" edge="1" parent="1" source="OvTDYiHXzu4ZW3dvxAtP-8">
          <mxGeometry width="50" height="50" relative="1" as="geometry">
            <mxPoint x="610" y="750" as="sourcePoint" />
            <mxPoint x="460" y="610" as="targetPoint" />
          </mxGeometry>
        </mxCell>
        <mxCell id="OvTDYiHXzu4ZW3dvxAtP-33" value="BIock" style="rounded=1;whiteSpace=wrap;html=1;fillColor=#6d8764;fontColor=#ffffff;strokeColor=#3A5431;" vertex="1" parent="1">
          <mxGeometry x="240" y="800" width="80" height="40" as="geometry" />
        </mxCell>
        <mxCell id="OvTDYiHXzu4ZW3dvxAtP-35" value="BIock" style="rounded=1;whiteSpace=wrap;html=1;fillColor=#6d8764;fontColor=#ffffff;strokeColor=#3A5431;" vertex="1" parent="1">
          <mxGeometry x="360" y="800" width="80" height="40" as="geometry" />
        </mxCell>
        <mxCell id="OvTDYiHXzu4ZW3dvxAtP-36" value="BIock" style="rounded=1;whiteSpace=wrap;html=1;fillColor=#6d8764;fontColor=#ffffff;strokeColor=#3A5431;" vertex="1" parent="1">
          <mxGeometry x="560" y="800" width="80" height="40" as="geometry" />
        </mxCell>
        <mxCell id="OvTDYiHXzu4ZW3dvxAtP-37" value="Conv" style="rounded=1;whiteSpace=wrap;html=1;fillColor=#0050ef;strokeColor=#001DBC;fontColor=#ffffff;direction=south;" vertex="1" parent="1">
          <mxGeometry x="680" y="780" width="40" height="80" as="geometry" />
        </mxCell>
        <mxCell id="OvTDYiHXzu4ZW3dvxAtP-38" value="" style="endArrow=classic;html=1;rounded=0;entryX=0;entryY=0.5;entryDx=0;entryDy=0;" edge="1" parent="1" target="OvTDYiHXzu4ZW3dvxAtP-33">
          <mxGeometry width="50" height="50" relative="1" as="geometry">
            <mxPoint x="200" y="820" as="sourcePoint" />
            <mxPoint x="660" y="600" as="targetPoint" />
          </mxGeometry>
        </mxCell>
        <mxCell id="OvTDYiHXzu4ZW3dvxAtP-39" value="" style="endArrow=classic;html=1;rounded=0;exitX=1;exitY=0.5;exitDx=0;exitDy=0;entryX=0;entryY=0.5;entryDx=0;entryDy=0;" edge="1" parent="1" source="OvTDYiHXzu4ZW3dvxAtP-33" target="OvTDYiHXzu4ZW3dvxAtP-35">
          <mxGeometry width="50" height="50" relative="1" as="geometry">
            <mxPoint x="610" y="650" as="sourcePoint" />
            <mxPoint x="660" y="600" as="targetPoint" />
          </mxGeometry>
        </mxCell>
        <mxCell id="OvTDYiHXzu4ZW3dvxAtP-40" value="" style="endArrow=classic;html=1;rounded=0;exitX=1;exitY=0.5;exitDx=0;exitDy=0;" edge="1" parent="1" source="OvTDYiHXzu4ZW3dvxAtP-35">
          <mxGeometry width="50" height="50" relative="1" as="geometry">
            <mxPoint x="610" y="650" as="sourcePoint" />
            <mxPoint x="480" y="820" as="targetPoint" />
          </mxGeometry>
        </mxCell>
        <mxCell id="OvTDYiHXzu4ZW3dvxAtP-41" value="" style="endArrow=none;dashed=1;html=1;rounded=0;" edge="1" parent="1">
          <mxGeometry width="50" height="50" relative="1" as="geometry">
            <mxPoint x="480" y="820" as="sourcePoint" />
            <mxPoint x="520" y="820" as="targetPoint" />
          </mxGeometry>
        </mxCell>
        <mxCell id="OvTDYiHXzu4ZW3dvxAtP-42" value="" style="endArrow=classic;html=1;rounded=0;entryX=0;entryY=0.5;entryDx=0;entryDy=0;" edge="1" parent="1" target="OvTDYiHXzu4ZW3dvxAtP-36">
          <mxGeometry width="50" height="50" relative="1" as="geometry">
            <mxPoint x="520" y="820" as="sourcePoint" />
            <mxPoint x="660" y="600" as="targetPoint" />
          </mxGeometry>
        </mxCell>
        <mxCell id="OvTDYiHXzu4ZW3dvxAtP-43" value="" style="endArrow=classic;html=1;rounded=0;exitX=1;exitY=0.5;exitDx=0;exitDy=0;entryX=0.5;entryY=1;entryDx=0;entryDy=0;" edge="1" parent="1" source="OvTDYiHXzu4ZW3dvxAtP-36" target="OvTDYiHXzu4ZW3dvxAtP-37">
          <mxGeometry width="50" height="50" relative="1" as="geometry">
            <mxPoint x="610" y="650" as="sourcePoint" />
            <mxPoint x="660" y="600" as="targetPoint" />
          </mxGeometry>
        </mxCell>
        <mxCell id="OvTDYiHXzu4ZW3dvxAtP-44" value="" style="endArrow=classic;html=1;rounded=0;exitX=0.5;exitY=0;exitDx=0;exitDy=0;" edge="1" parent="1" source="OvTDYiHXzu4ZW3dvxAtP-37">
          <mxGeometry width="50" height="50" relative="1" as="geometry">
            <mxPoint x="610" y="650" as="sourcePoint" />
            <mxPoint x="760" y="820" as="targetPoint" />
          </mxGeometry>
        </mxCell>
        <mxCell id="OvTDYiHXzu4ZW3dvxAtP-45" value="" style="ellipse;whiteSpace=wrap;html=1;aspect=fixed;" vertex="1" parent="1">
          <mxGeometry x="760" y="800" width="40" height="40" as="geometry" />
        </mxCell>
        <mxCell id="OvTDYiHXzu4ZW3dvxAtP-46" value="" style="endArrow=none;html=1;rounded=0;entryX=0.5;entryY=1;entryDx=0;entryDy=0;exitX=0.5;exitY=0;exitDx=0;exitDy=0;" edge="1" parent="1" source="OvTDYiHXzu4ZW3dvxAtP-45" target="OvTDYiHXzu4ZW3dvxAtP-45">
          <mxGeometry width="50" height="50" relative="1" as="geometry">
            <mxPoint x="600" y="650" as="sourcePoint" />
            <mxPoint x="650" y="600" as="targetPoint" />
          </mxGeometry>
        </mxCell>
        <mxCell id="OvTDYiHXzu4ZW3dvxAtP-47" value="" style="endArrow=none;html=1;rounded=0;entryX=0;entryY=0.5;entryDx=0;entryDy=0;exitX=1;exitY=0.5;exitDx=0;exitDy=0;" edge="1" parent="1" source="OvTDYiHXzu4ZW3dvxAtP-45" target="OvTDYiHXzu4ZW3dvxAtP-45">
          <mxGeometry width="50" height="50" relative="1" as="geometry">
            <mxPoint x="600" y="650" as="sourcePoint" />
            <mxPoint x="650" y="600" as="targetPoint" />
          </mxGeometry>
        </mxCell>
        <mxCell id="OvTDYiHXzu4ZW3dvxAtP-48" value="" style="endArrow=classic;html=1;rounded=0;" edge="1" parent="1">
          <mxGeometry width="50" height="50" relative="1" as="geometry">
            <mxPoint x="800" y="820" as="sourcePoint" />
            <mxPoint x="840" y="820" as="targetPoint" />
          </mxGeometry>
        </mxCell>
        <mxCell id="OvTDYiHXzu4ZW3dvxAtP-49" value="" style="endArrow=classic;html=1;rounded=0;entryX=0.5;entryY=0;entryDx=0;entryDy=0;" edge="1" parent="1" target="OvTDYiHXzu4ZW3dvxAtP-45">
          <mxGeometry width="50" height="50" relative="1" as="geometry">
            <mxPoint x="220" y="820" as="sourcePoint" />
            <mxPoint x="650" y="800" as="targetPoint" />
            <Array as="points">
              <mxPoint x="220" y="770" />
              <mxPoint x="780" y="770" />
            </Array>
          </mxGeometry>
        </mxCell>
        <mxCell id="OvTDYiHXzu4ZW3dvxAtP-50" value="" style="endArrow=none;dashed=1;html=1;rounded=0;" edge="1" parent="1">
          <mxGeometry width="50" height="50" relative="1" as="geometry">
            <mxPoint x="190" y="870" as="sourcePoint" />
            <mxPoint x="190" y="870" as="targetPoint" />
            <Array as="points">
              <mxPoint x="190" y="760" />
              <mxPoint x="860" y="760" />
              <mxPoint x="860" y="870" />
            </Array>
          </mxGeometry>
        </mxCell>
        <mxCell id="OvTDYiHXzu4ZW3dvxAtP-51" value="" style="endArrow=none;dashed=1;html=1;rounded=0;" edge="1" parent="1">
          <mxGeometry width="50" height="50" relative="1" as="geometry">
            <mxPoint x="160" y="590" as="sourcePoint" />
            <mxPoint x="160" y="590" as="targetPoint" />
            <Array as="points">
              <mxPoint x="980" y="590" />
              <mxPoint x="980" y="750" />
              <mxPoint x="160" y="750" />
            </Array>
          </mxGeometry>
        </mxCell>
        <mxCell id="OvTDYiHXzu4ZW3dvxAtP-52" value="FFA Net" style="text;html=1;align=center;verticalAlign=middle;whiteSpace=wrap;rounded=0;" vertex="1" parent="1">
          <mxGeometry x="710" y="620" width="60" height="30" as="geometry" />
        </mxCell>
        <mxCell id="OvTDYiHXzu4ZW3dvxAtP-53" value="Group Structure" style="text;html=1;align=center;verticalAlign=middle;whiteSpace=wrap;rounded=0;" vertex="1" parent="1">
          <mxGeometry x="470" y="830" width="60" height="30" as="geometry" />
        </mxCell>
      </root>
    </mxGraphModel>
  </diagram>
</mxfile>
